# xmcd CD database file generated by Grip 2.96
# 
# Track frame offsets:
#       150
#       49432
#       70167
#       93547
#       109344
#       142069
#       164096
# 
# Disc length: 2543 seconds
# 
# Revision: 0
# Processed by: cddbd v1.4PL0 Copyright (c) Steve Scherf et al.
# Submitted via: Grip 2.96
# 
DISCID=6e09ed07
DTITLE=B.B. King - BB's Theme
DYEAR=1900
DGENRE=
TTITLE0=BB's Theme
TTITLE1=Why I sing the Blues
TTITLE2=Darling you know I love you
TTITLE3=Caledonia
TTITLE4=All over again
TTITLE5=Everyday I have the blues
TTITLE6=Sweet little Angel
EXTD=
EXTT0=
EXTT1=
EXTT2=
EXTT3=
EXTT4=
EXTT5=
EXTT6=
PLAYORDER=
